<svg id="Layer_1" data-name="Layer 1" xmlns="http://www.w3.org/2000/svg" viewBox="0 0 1200 1200"><defs><style>.cls-1{fill:#00a4ff;}.cls-2{fill:none;stroke:#fff;stroke-linecap:round;stroke-miterlimit:10;stroke-width:6.03px;}.cls-3{fill:#fff;}</style></defs><rect class="cls-1" x="-3" y="-4" width="1202" height="1204"/><line class="cls-2" x1="843.91" y1="715.78" x2="814.45" y2="715.78"/><line class="cls-2" x1="843.91" y1="701.79" x2="814.45" y2="701.79"/><line class="cls-2" x1="869.32" y1="687.81" x2="789.48" y2="687.81"/><line class="cls-2" x1="869.32" y1="673.83" x2="789.48" y2="673.83"/><line class="cls-2" x1="843.91" y1="659.85" x2="814.45" y2="659.85"/><line class="cls-2" x1="843.91" y1="645.87" x2="814.45" y2="645.87"/><path class="cls-3" d="M862.43,735.85l-104.32-3,104.32-3a3,3,0,1,1,.17,6Z"/><path class="cls-3" d="M882.29,721.87l-109.88-3,109.88-3a3,3,0,0,1,.16,6Z"/><path class="cls-3" d="M891.88,707.89l-103.39-3,103.39-3a3,3,0,0,1,.18,6Z"/><path class="cls-3" d="M904.35,693.91l-115.71-3,115.71-3a3,3,0,1,1,.16,6Z"/><path class="cls-3" d="M921.14,679.93l-132.5-3,132.5-3a3,3,0,0,1,.14,6Z"/><path class="cls-3" d="M921.14,665.94l-114.58-3,114.58-3a3,3,0,1,1,.16,6Z"/><path class="cls-3" d="M904.35,652,788.7,649l115.65-3a3,3,0,1,1,.16,6Z"/><path class="cls-3" d="M882.29,638l-112.52-3,112.52-3a3,3,0,1,1,.16,6Z"/><path class="cls-3" d="M862.43,624l-101.86-3,101.86-3a3,3,0,1,1,.18,6Z"/><path class="cls-3" d="M356.81,504.9c-2.53-18.5-18.65-18.82-24.66-18.82-5.85,0-25.14,1.11-25.14,38.11,0,20.87,9.48,35.89,27.19,35.89,17.24,0,22-12.49,23.25-20.71h25.93c-1.74,16.6-11.07,42.22-50.28,42.22-28.31,0-54.24-13.6-54.24-57.08,0-57.56,38.11-59.93,49.65-59.93,13,0,24.51,3.95,30.83,12.65v-9.49h21.51V504.9Z"/><path class="cls-3" d="M393,523.08c0-25.77,12.33-58.5,56-58.5,38.11,0,56,25,56,58.5s-17.87,58.51-56,58.51C405.36,581.59,393,548.86,393,523.08Zm83.8,0c0-10.12-1.26-37-27.83-37-14.39,0-27.67,7.75-27.67,37,0,28.94,13.28,37,27.67,37C475.57,560.08,476.83,532.41,476.83,523.08Z"/><path class="cls-3" d="M509.72,467.74h47v21.51h-7.43l17.87,57.55,17.08-57.55h-7.12V467.74H622v21.51h-10.6l-31.94,89.18H551.78L520,489.25H509.72Z"/><path class="cls-3" d="M634.63,467.74h47.28v21.51H671.32v67.67h10.59v21.51H634.63V556.92h10.6V489.25h-10.6Z"/><path class="cls-3" d="M697.72,467.74h57.4c10.6,0,54.87.79,54.87,54.71,0,52.34-39.37,56-57.24,56h-55V556.92h10.6V489.25h-10.6Zm36.69,89.18h15.81c20.4,0,31.62-11.07,31.62-34,0-30.68-19.13-33.68-30-33.68H734.41Z"/><path class="cls-3" d="M280.44,621.57h57.4c10.59,0,54.87.79,54.87,54.71,0,52.34-39.37,56-57.24,56h-55V710.75H291V643.08h-10.6Zm36.69,89.18h15.81c20.4,0,31.62-11.06,31.62-34,0-30.68-19.13-33.68-30-33.68H317.13Z"/><path class="cls-3" d="M425.12,621.57h42.54l34,90.76h10.6v19.93H466.08V712.81h7.43l-2.37-7.12H435.09l-2.53,7.12h6.95v19.45H396.66V712.33h10.6L434.61,641h-9.49Zm15,66.1H465.6l-12.49-37Z"/><path class="cls-3" d="M589.41,655.57c-.79-6-5.37-15.65-19.6-15.65-13,0-17.08,5.05-17.08,10.59,0,9.49,12.33,11.86,21.82,13.6,23.56,4.27,42.85,10.12,42.85,34.47,0,9-.95,36.84-44.12,36.84-10.91,0-23.24-3.64-30-12.33v9.17H524V695.1h25c0,6.8,3.32,18.82,22,18.82,9.65,0,19.77-2.53,19.77-11.86,0-11.86-14.87-13.92-28.15-16.76C542.77,681,526,675.49,526,650.83c0-11.55,5.53-22.14,16.92-27.67,6.16-3,13-4.75,24-4.75,9.8,0,21.82,4.11,26.56,11.54v-8.38h19.29v34Z"/><path class="cls-3" d="M700.41,710.75h10.28V684.19H668.31v26.56h10.28v21.51h-47V710.75h10.59V643.08H631.63V621.57h47v21.51H668.31V664h42.38V643.08H700.41V621.57h47v21.51H736.78v67.67h10.59v21.51h-47Z"/></svg>