<svg id="Layer_1" data-name="Layer 1" xmlns="http://www.w3.org/2000/svg" viewBox="0 0 1200 1200"><defs><style>.cls-1{fill:none;stroke:#00a4ff;stroke-linecap:round;stroke-miterlimit:10;stroke-width:20.65px;}.cls-2{fill:#00a4ff;}</style></defs><line class="cls-1" x1="614.68" y1="733.21" x2="513.69" y2="733.21"/><line class="cls-1" x1="614.68" y1="685.29" x2="513.69" y2="685.29"/><line class="cls-1" x1="701.78" y1="637.37" x2="428.13" y2="637.37"/><line class="cls-1" x1="701.78" y1="589.45" x2="428.13" y2="589.45"/><line class="cls-1" x1="614.68" y1="541.53" x2="513.69" y2="541.53"/><line class="cls-1" x1="614.68" y1="493.6" x2="513.69" y2="493.6"/><path class="cls-2" d="M678.17,802,320.59,791.69l357.58-10.33a10.33,10.33,0,1,1,.6,20.65Z"/><path class="cls-2" d="M746.24,754.09,369.6,743.77l376.64-10.33a10.33,10.33,0,0,1,.57,20.65Z"/><path class="cls-2" d="M779.13,706.17l-354.4-10.33,354.4-10.32a10.33,10.33,0,1,1,.6,20.65Z"/><path class="cls-2" d="M821.88,658.25,425.24,647.92l396.64-10.33a10.33,10.33,0,0,1,.54,20.66Z"/><path class="cls-2" d="M879.41,610.33,425.24,600l454.17-10.33a10.33,10.33,0,0,1,.47,20.66Z"/><path class="cls-2" d="M879.41,562.41,486.66,552.08l392.75-10.33a10.33,10.33,0,0,1,.55,20.66Z"/><path class="cls-2" d="M821.88,514.48,425.45,504.16l396.43-10.33a10.33,10.33,0,1,1,.54,20.65Z"/><path class="cls-2" d="M746.24,466.56l-385.7-10.33,385.7-10.32a10.33,10.33,0,1,1,.56,20.65Z"/><path class="cls-2" d="M678.17,418.64,329,408.31,678.17,398a10.33,10.33,0,1,1,.61,20.65Z"/></svg>