<svg width="88" height="56" viewBox="0 0 88 56" fill="none" xmlns="http://www.w3.org/2000/svg">
<g clip-path="url(#clip0)">
<path d="M44.7401 46.6272H28.9267C28.0334 46.6272 27.3067 45.9005 27.3067 45.0072C27.3067 44.1139 28.0334 43.3872 28.9267 43.3872H44.7467C45.6401 43.3872 46.3667 44.1139 46.3667 45.0072C46.3667 45.9005 45.6334 46.6272 44.7401 46.6272Z" fill="#FF5761"/>
<path d="M44.7401 39.1206H28.9267C28.0334 39.1206 27.3067 38.3939 27.3067 37.5006C27.3067 36.6072 28.0334 35.8806 28.9267 35.8806H44.7467C45.6401 35.8806 46.3667 36.6072 46.3667 37.5006C46.3601 38.4006 45.6334 39.1206 44.7401 39.1206Z" fill="#FF5761"/>
<path d="M58.3867 31.6139H15.52C14.6267 31.6139 13.9 30.8873 13.9 29.9939C13.9 29.1006 14.6267 28.3739 15.52 28.3739H58.3934C59.2867 28.3739 60.0134 29.1006 60.0134 29.9939C60.0134 30.8873 59.28 31.6139 58.3867 31.6139Z" fill="#FF5761"/>
<path d="M58.3867 24.1072H15.52C14.6267 24.1072 13.9 23.3805 13.9 22.4872C13.9 21.5939 14.6267 20.8672 15.52 20.8672H58.3934C59.2867 20.8672 60.0134 21.5939 60.0134 22.4872C60.0134 23.3805 59.28 24.1072 58.3867 24.1072Z" fill="#FF5761"/>
<path d="M44.7401 16.6006H28.9267C28.0334 16.6006 27.3067 15.8739 27.3067 14.9806C27.3067 14.0872 28.0334 13.3606 28.9267 13.3606H44.7467C45.6401 13.3606 46.3667 14.0872 46.3667 14.9806C46.3667 15.8739 45.6334 16.6006 44.7401 16.6006Z" fill="#FF5761"/>
<path d="M44.7401 9.09385H28.9267C28.0334 9.09385 27.3067 8.36718 27.3067 7.47385C27.3067 6.58051 28.0334 5.85385 28.9267 5.85385H44.7467C45.6401 5.85385 46.3667 6.58051 46.3667 7.47385C46.3667 8.36718 45.6334 9.09385 44.7401 9.09385Z" fill="#FF5761"/>
<path d="M56.34 55.7872L-2.66664 54.1672L56.34 52.5472C57.2334 52.5206 57.98 53.2272 58 54.1206C58.0267 55.0139 57.32 55.7606 56.4267 55.7806C56.4 55.7939 56.3667 55.7939 56.34 55.7872Z" fill="#FF5761"/>
<path d="M61.4933 48.2808L5.9733 46.6608L61.4933 45.0408C62.3866 45.0141 63.1333 45.7208 63.16 46.6141C63.1866 47.5074 62.48 48.2541 61.5866 48.2808C61.56 48.2874 61.52 48.2808 61.4933 48.2808Z" fill="#FF5761"/>
<path d="M68.1936 40.774L6.06026 39.154L68.1936 37.534C69.0869 37.514 69.8336 38.214 69.8536 39.1073C69.8736 40.0006 69.1736 40.7473 68.2803 40.7673C68.2469 40.774 68.2136 40.774 68.1936 40.774Z" fill="#FF5761"/>
<path d="M77.2068 33.2672L6.05342 31.6539L77.2001 30.0339C78.0934 30.0139 78.8334 30.7206 78.8534 31.6139C78.8734 32.5072 78.1668 33.2472 77.2734 33.2672C77.2534 33.2672 77.2268 33.2672 77.2068 33.2672Z" fill="#FF5761"/>
<path d="M86.2135 25.7606L24.6868 24.1406L86.2135 22.5206C87.1068 22.4939 87.8535 23.2006 87.8735 24.0939C87.9002 24.9873 87.1935 25.7339 86.3002 25.7539C86.2735 25.7606 86.2402 25.7606 86.2135 25.7606Z" fill="#FF5761"/>
<path d="M77.2066 18.2541L15.1 16.6341L77.2066 15.0141C78.1 14.9941 78.8466 15.6941 78.8666 16.5874C78.8866 17.4808 78.1866 18.2274 77.2933 18.2474C77.26 18.2541 77.2266 18.2541 77.2066 18.2541Z" fill="#FF5761"/>
<path d="M65.3534 10.7472L4.92671 9.12722L65.3534 7.50722C66.2467 7.48056 66.9934 8.18722 67.0134 9.08056C67.04 9.97389 66.3334 10.7206 65.44 10.7406C65.4134 10.7472 65.38 10.7472 65.3534 10.7472Z" fill="#FF5761"/>
<path d="M54.6933 3.24074L-0.00671387 1.62074L54.6933 0.000737274C55.5866 -0.0259294 56.3333 0.67407 56.36 1.5674C56.3866 2.46074 55.6866 3.2074 54.7933 3.23407C54.7533 3.24074 54.72 3.24074 54.6933 3.24074Z" fill="#FF5761"/>
</g>
<defs>
<clipPath id="clip0">
<rect width="88" height="56" fill="white"/>
</clipPath>
</defs>
</svg>
